<svg id="svg" xmlns="http://www.w3.org/2000/svg" xmlns:xlink="http://www.w3.org/1999/xlink" width="35" height="35" viewBox="0, 0, 400,400">
  <g id="svgg">
    <path id="path0" d="M16.075 80.977 C 10.830 82.587,3.147 90.218,1.306 95.647 C -0.910 102.180,-0.663 249.500,1.579 258.273 C 5.686 274.349,8.924 278.370,52.829 321.917 C 94.169 362.920,89.028 360.422,131.250 360.017 L 157.422 359.766 162.657 357.286 C 169.317 354.130,174.443 349.004,177.598 342.344 L 180.078 337.109 180.055 303.125 C 180.021 250.882,180.212 251.317,139.127 209.942 C 109.871 180.480,108.846 179.687,100.000 179.688 C 87.650 179.688,78.786 189.324,79.894 201.544 C 80.516 208.402,81.779 210.092,100.347 228.906 C 119.225 248.034,120.456 249.858,119.168 256.805 C 117.468 265.971,106.225 272.022,98.397 267.984 C 95.056 266.261,60.113 231.076,56.927 226.228 C 50.257 216.080,50.510 218.718,50.032 154.297 L 49.609 97.266 47.795 93.581 C 42.332 82.491,28.740 77.090,16.075 80.977 M367.969 80.381 C 363.617 81.792,359.519 84.434,356.351 87.872 C 350.023 94.737,350.442 90.376,349.968 154.297 C 349.424 227.521,351.985 219.006,321.382 249.347 C 305.284 265.307,302.271 267.958,299.349 268.731 C 292.661 270.500,285.700 267.223,282.497 260.795 C 278.034 251.838,279.463 249.229,300.375 228.169 C 318.402 210.014,320.268 207.412,320.291 200.391 C 320.331 188.322,311.895 179.688,300.064 179.688 C 291.180 179.688,290.160 180.472,261.247 209.543 C 220.566 250.446,220.269 251.096,219.733 300.382 C 219.265 343.423,221.186 349.631,237.343 357.286 L 242.578 359.766 268.750 360.017 C 311.273 360.425,305.640 363.229,349.121 320.013 C 405.378 264.097,400.104 279.269,399.820 174.185 L 399.609 96.484 397.436 92.786 C 391.404 82.526,378.328 77.021,367.969 80.381 " stroke="none" fill="#000000" fill-rule="evenodd"></path>
  </g>
</svg>